<svg fill="#fff" xmlns="http://www.w3.org/2000/svg" viewBox="0 0 24 24"><g id="Layer_2" data-name="Layer 2"><path d="M20,1a3.0034,3.0034,0,0,1,3,3V20a3.0034,3.0034,0,0,1-3,3H4a3.0034,3.0034,0,0,1-3-3V4A3.0034,3.0034,0,0,1,4,1H20m0-1H4A4,4,0,0,0,0,4V20a4,4,0,0,0,4,4H20a4,4,0,0,0,4-4V4a4,4,0,0,0-4-4Z"></path></g><g id="Layer_3" data-name="Layer 3"><path d="M17,19.5H7.4141A1.5,1.5,0,0,1,6.3535,16.94l6.293-6.293a.5.5,0,0,1,.707.707l-6.293,6.293a.5.5,0,0,0,.3536.8535H17A1.5017,1.5017,0,0,0,18.5,17V7A1.5017,1.5017,0,0,0,17,5.5H7A1.5017,1.5017,0,0,0,5.5,7v6.5859a.5.5,0,0,0,.8535.3536l1.293-1.293a.5.5,0,0,1,.707.707l-1.293,1.293A1.5,1.5,0,0,1,4.5,13.5859V7A2.5023,2.5023,0,0,1,7,4.5H17A2.5023,2.5023,0,0,1,19.5,7V17A2.5023,2.5023,0,0,1,17,19.5Z"></path><path d="M13,14.5a.5.5,0,0,1-.5-.5V11.5H10a.5.5,0,0,1,0-1h3a.5.5,0,0,1,.5.5v3A.5.5,0,0,1,13,14.5Z"></path></g></svg>